<?xml version="1.0" standalone="no"?>
<!DOCTYPE svg PUBLIC "-//W3C//DTD SVG 20010904//EN"
 "http://www.w3.org/TR/2001/REC-SVG-20010904/DTD/svg10.dtd">
<svg version="1.0" xmlns="http://www.w3.org/2000/svg"
 width="260.000000pt" height="260.000000pt" viewBox="0 0 260.000000 260.000000"
 preserveAspectRatio="xMidYMid meet">
<metadata>
Created by potrace 1.11, written by Peter Selinger 2001-2013
</metadata>
<g transform="translate(0.000000,260.000000) scale(0.100000,-0.100000)"
fill="#000000" stroke="none">
<path d="M780 1844 c-163 -32 -317 -142 -393 -281 -87 -162 -89 -400 -4 -572
160 -327 653 -401 912 -137 54 55 110 146 130 214 l6 22 -150 0 -149 0 -59
-58 c-48 -48 -68 -61 -112 -72 -111 -26 -232 13 -292 94 -45 62 -62 133 -57
241 4 108 36 186 96 235 115 94 313 74 389 -41 l26 -39 154 0 154 0 -6 23
c-20 70 -73 157 -134 218 -107 108 -208 149 -376 154 -60 2 -121 1 -135 -1z"/>
<path d="M1597 1834 c-4 -4 -7 -261 -7 -571 l0 -563 325 0 325 0 0 110 0 110
-180 0 -180 0 -2 458 -3 457 -136 3 c-74 1 -138 -1 -142 -4z"/>
<path d="M2095 389 c-28 -23 -74 -58 -102 -77 -52 -34 -71 -52 -35 -33 38 20
203 150 192 151 -3 0 -28 -19 -55 -41z"/>
<path d="M710 266 c0 -2 7 -7 16 -10 8 -3 12 -2 9 4 -6 10 -25 14 -25 6z"/>
<path d="M1860 235 c-36 -19 -61 -34 -57 -35 10 0 127 59 127 65 0 7 2 8 -70
-30z"/>
<path d="M1088 123 c7 -3 16 -2 19 1 4 3 -2 6 -13 5 -11 0 -14 -3 -6 -6z"/>
<path d="M1138 113 c6 -2 18 -2 25 0 6 3 1 5 -13 5 -14 0 -19 -2 -12 -5z"/>
<path d="M1478 113 c6 -2 18 -2 25 0 6 3 1 5 -13 5 -14 0 -19 -2 -12 -5z"/>
<path d="M1273 103 c32 -2 81 -2 110 0 29 2 3 3 -58 3 -60 0 -84 -1 -52 -3z"/>
</g>
</svg>
